<?xml version="1.0" encoding="UTF-8" standalone="no"?>
<!DOCTYPE svg PUBLIC "-//W3C//DTD SVG 1.1//EN"
 "http://www.w3.org/Graphics/SVG/1.1/DTD/svg11.dtd">
<!-- Generated by graphviz version 2.50.0 (20211204.2007)
 -->
<!-- Pages: 1 -->
<svg width="259pt" height="332pt"
 viewBox="0.00 0.00 259.03 332.00" xmlns="http://www.w3.org/2000/svg" xmlns:xlink="http://www.w3.org/1999/xlink">
<g id="graph0" class="graph" transform="scale(1 1) rotate(0) translate(4 328)">
<polygon fill="white" stroke="transparent" points="-4,4 -4,-328 255.03,-328 255.03,4 -4,4"/>
<!-- A -->
<g id="node1" class="node">
<title>A</title>
<ellipse fill="none" stroke="black" cx="101.03" cy="-306" rx="27" ry="18"/>
<text text-anchor="middle" x="101.03" y="-302.3" font-family="Times New Roman,serif" font-size="14.00">A</text>
</g>
<!-- A&#45;&#45;A -->
<g id="edge1" class="edge">
<title>A&#45;&#45;A</title>
<path fill="none" stroke="black" d="M120.92,-318.43C133.72,-321.68 146.03,-317.53 146.03,-306 146.03,-294.47 133.72,-290.32 120.92,-293.57"/>
</g>
<!-- B -->
<g id="node2" class="node">
<title>B</title>
<ellipse fill="none" stroke="black" cx="60.03" cy="-234" rx="27" ry="18"/>
<text text-anchor="middle" x="60.03" y="-230.3" font-family="Times New Roman,serif" font-size="14.00">B</text>
</g>
<!-- A&#45;&#45;B -->
<g id="edge2" class="edge">
<title>A&#45;&#45;B</title>
<path fill="none" stroke="black" d="M86.94,-290.5C78.93,-279.28 69.73,-263.74 64.08,-251.95"/>
</g>
<!-- C -->
<g id="node3" class="node">
<title>C</title>
<ellipse fill="none" stroke="black" cx="62.03" cy="-18" rx="27" ry="18"/>
<text text-anchor="middle" x="62.03" y="-14.3" font-family="Times New Roman,serif" font-size="14.00">C</text>
</g>
<!-- A&#45;&#45;C -->
<g id="edge3" class="edge">
<title>A&#45;&#45;C</title>
<path fill="none" stroke="black" d="M76.12,-298.37C55.19,-290.5 27.34,-275.41 15.03,-252 -24.16,-177.45 24.05,-72.45 49.26,-33.92"/>
</g>
<!-- D -->
<g id="node4" class="node">
<title>D</title>
<ellipse fill="none" stroke="black" cx="109.03" cy="-90" rx="27" ry="18"/>
<text text-anchor="middle" x="109.03" y="-86.3" font-family="Times New Roman,serif" font-size="14.00">D</text>
</g>
<!-- A&#45;&#45;D -->
<g id="edge4" class="edge">
<title>A&#45;&#45;D</title>
<path fill="none" stroke="black" d="M98.48,-288.01C100.22,-277.7 103.55,-264.23 105.03,-252 111.34,-199.81 105.68,-137.44 105.8,-108"/>
</g>
<!-- E -->
<g id="node5" class="node">
<title>E</title>
<ellipse fill="none" stroke="black" cx="206.03" cy="-162" rx="27" ry="18"/>
<text text-anchor="middle" x="206.03" y="-158.3" font-family="Times New Roman,serif" font-size="14.00">E</text>
</g>
<!-- A&#45;&#45;E -->
<g id="edge5" class="edge">
<title>A&#45;&#45;E</title>
<path fill="none" stroke="black" d="M115.32,-290.59C127.52,-280.92 144.33,-267.21 156.03,-252 173.66,-229.07 185.95,-197.35 194.86,-178.62"/>
</g>
<!-- B&#45;&#45;A -->
<g id="edge6" class="edge">
<title>B&#45;&#45;A</title>
<path fill="none" stroke="black" d="M74.06,-249.42C82.08,-260.64 91.32,-276.24 96.98,-288.05"/>
</g>
<!-- B&#45;&#45;B -->
<g id="edge7" class="edge">
<title>B&#45;&#45;B</title>
<path fill="none" stroke="black" d="M79.92,-246.43C92.72,-249.68 105.03,-245.53 105.03,-234 105.03,-222.47 92.72,-218.32 79.92,-221.57"/>
</g>
<!-- B&#45;&#45;C -->
<g id="edge8" class="edge">
<title>B&#45;&#45;C</title>
<path fill="none" stroke="black" d="M56.31,-215.85C52.85,-175.68 53.79,-75.89 58.01,-35.94"/>
</g>
<!-- B&#45;&#45;D -->
<g id="edge9" class="edge">
<title>B&#45;&#45;D</title>
<path fill="none" stroke="black" d="M61.35,-215.87C67.99,-188.14 86.79,-133.79 99.1,-106.88"/>
</g>
<!-- B&#45;&#45;E -->
<g id="edge10" class="edge">
<title>B&#45;&#45;E</title>
<path fill="none" stroke="black" d="M79.27,-221.28C106.1,-207.35 154.12,-184.41 182.87,-171.86"/>
</g>
<!-- C&#45;&#45;A -->
<g id="edge11" class="edge">
<title>C&#45;&#45;A</title>
<path fill="none" stroke="black" d="M57.11,-35.95C40.44,-76.01 -5.49,-178.72 33.03,-252 43.3,-271.54 64.39,-285.27 80.55,-293.86"/>
</g>
<!-- C&#45;&#45;B -->
<g id="edge12" class="edge">
<title>C&#45;&#45;B</title>
<path fill="none" stroke="black" d="M65.73,-35.94C69.2,-75.89 68.28,-175.68 64.07,-215.85"/>
</g>
<!-- C&#45;&#45;C -->
<g id="edge13" class="edge">
<title>C&#45;&#45;C</title>
<path fill="none" stroke="black" d="M81.92,-30.43C94.72,-33.68 107.03,-29.53 107.03,-18 107.03,-6.47 94.72,-2.32 81.92,-5.57"/>
</g>
<!-- C&#45;&#45;D -->
<g id="edge14" class="edge">
<title>C&#45;&#45;D</title>
<path fill="none" stroke="black" d="M77.3,-33.42C86.28,-44.64 96.85,-60.24 103.53,-72.05"/>
</g>
<!-- C&#45;&#45;E -->
<g id="edge15" class="edge">
<title>C&#45;&#45;E</title>
<path fill="none" stroke="black" d="M87.44,-24.87C112.2,-32.55 148.76,-47.95 172.03,-72 192.07,-92.72 204.33,-124.57 207.84,-144.03"/>
</g>
<!-- D&#45;&#45;A -->
<g id="edge16" class="edge">
<title>D&#45;&#45;A</title>
<path fill="none" stroke="black" d="M116.56,-107.53C123.62,-136.78 129.37,-199.53 123.03,-252 121.46,-264.98 117.8,-279.37 113.36,-289.87"/>
</g>
<!-- D&#45;&#45;B -->
<g id="edge17" class="edge">
<title>D&#45;&#45;B</title>
<path fill="none" stroke="black" d="M107.72,-108.06C101.11,-135.72 82.34,-190 70.02,-216.99"/>
</g>
<!-- D&#45;&#45;C -->
<g id="edge18" class="edge">
<title>D&#45;&#45;C</title>
<path fill="none" stroke="black" d="M93.97,-74.83C84.92,-63.57 74.21,-47.77 67.48,-35.86"/>
</g>
<!-- D&#45;&#45;D -->
<g id="edge19" class="edge">
<title>D&#45;&#45;D</title>
<path fill="none" stroke="black" d="M128.92,-102.43C141.72,-105.68 154.03,-101.53 154.03,-90 154.03,-78.47 141.72,-74.32 128.92,-77.57"/>
</g>
<!-- D&#45;&#45;E -->
<g id="edge20" class="edge">
<title>D&#45;&#45;E</title>
<path fill="none" stroke="black" d="M129.41,-102.04C148.08,-114.05 174.91,-133.28 191.52,-146.5"/>
</g>
<!-- E&#45;&#45;A -->
<g id="edge21" class="edge">
<title>E&#45;&#45;A</title>
<path fill="none" stroke="black" d="M207.24,-180.31C203.22,-199.21 191.14,-229.75 174.03,-252 160.22,-269.96 139.28,-285.82 123.07,-295.41"/>
</g>
<!-- E&#45;&#45;B -->
<g id="edge22" class="edge">
<title>E&#45;&#45;B</title>
<path fill="none" stroke="black" d="M186.47,-174.88C159.48,-188.88 111.46,-211.82 82.87,-224.28"/>
</g>
<!-- E&#45;&#45;C -->
<g id="edge23" class="edge">
<title>E&#45;&#45;C</title>
<path fill="none" stroke="black" d="M195.54,-145.39C186.91,-126.1 174.55,-93.21 154.03,-72 134.06,-51.36 104.31,-37.1 83.9,-28.61"/>
</g>
<!-- E&#45;&#45;D -->
<g id="edge24" class="edge">
<title>E&#45;&#45;D</title>
<path fill="none" stroke="black" d="M185.81,-150.06C167.13,-138.07 140.2,-118.76 123.53,-105.5"/>
</g>
<!-- E&#45;&#45;E -->
<g id="edge25" class="edge">
<title>E&#45;&#45;E</title>
<path fill="none" stroke="black" d="M225.92,-174.43C238.72,-177.68 251.03,-173.53 251.03,-162 251.03,-150.47 238.72,-146.32 225.92,-149.57"/>
</g>
</g>
</svg>
